# xmcd CD database file
#
# Track frame offsets:
#	150
#	28592
#	55262
#	84489
#	145534
#	149041
#	168441
#
# Disc length: 2557 seconds
#
# Revision: 0
# Processed by: cddbd v1.5.1PL2 Copyright (c) Steve Scherf et al.
# Submitted via: Feurio! 1.68 - http://www.feurio.com
#
DISCID=5c09fb07
DTITLE=Popa Chubby - Live at the FIP [CD1)
DYEAR=1900
DGENRE=
TTITLE0=Hey Joe
TTITLE1=The Dock Of The Bay
TTITLE2=Time Is Killing Me
TTITLE3=Sweet Goddess Of Love And Beer
TTITLE4=Musicians Introduction
TTITLE5=Fire
TTITLE6=Daddy Played The Guitar
EXTD=
EXTT0=
EXTT1=
EXTT2=
EXTT3=
EXTT4=
EXTT5=
EXTT6=
PLAYORDER=
